<mxfile host="app.diagrams.net" modified="2023-03-08T09:37:16.366Z" agent="5.0 (Windows NT 10.0; Win64; x64) AppleWebKit/537.36 (KHTML, like Gecko) Chrome/110.0.0.0 Safari/537.36" etag="O7pySXurNOujd569Ownb" version="21.0.2" type="github">
  <diagram id="C5RBs43oDa-KdzZeNtuy" name="Page-1">
    <mxGraphModel dx="1434" dy="796" grid="1" gridSize="10" guides="1" tooltips="1" connect="1" arrows="1" fold="1" page="1" pageScale="1" pageWidth="827" pageHeight="1169" math="0" shadow="0">
      <root>
        <mxCell id="WIyWlLk6GJQsqaUBKTNV-0" />
        <mxCell id="WIyWlLk6GJQsqaUBKTNV-1" parent="WIyWlLk6GJQsqaUBKTNV-0" />
        <mxCell id="tbQpGqJHSxhhCwGnWUc_-2" style="edgeStyle=orthogonalEdgeStyle;rounded=0;orthogonalLoop=1;jettySize=auto;html=1;" edge="1" parent="WIyWlLk6GJQsqaUBKTNV-1" source="tbQpGqJHSxhhCwGnWUc_-0" target="tbQpGqJHSxhhCwGnWUc_-1">
          <mxGeometry relative="1" as="geometry" />
        </mxCell>
        <mxCell id="tbQpGqJHSxhhCwGnWUc_-0" value="START" style="ellipse;whiteSpace=wrap;html=1;" vertex="1" parent="WIyWlLk6GJQsqaUBKTNV-1">
          <mxGeometry x="330" y="70" width="120" height="80" as="geometry" />
        </mxCell>
        <mxCell id="tbQpGqJHSxhhCwGnWUc_-4" style="edgeStyle=orthogonalEdgeStyle;rounded=0;orthogonalLoop=1;jettySize=auto;html=1;entryX=0.5;entryY=0;entryDx=0;entryDy=0;" edge="1" parent="WIyWlLk6GJQsqaUBKTNV-1" source="tbQpGqJHSxhhCwGnWUc_-1" target="tbQpGqJHSxhhCwGnWUc_-3">
          <mxGeometry relative="1" as="geometry" />
        </mxCell>
        <mxCell id="tbQpGqJHSxhhCwGnWUc_-1" value="pobierz data dzisiejsza = a&lt;br&gt;pobierz data urodzenia uzytkownika = b" style="rounded=0;whiteSpace=wrap;html=1;" vertex="1" parent="WIyWlLk6GJQsqaUBKTNV-1">
          <mxGeometry x="330" y="210" width="120" height="80" as="geometry" />
        </mxCell>
        <mxCell id="tbQpGqJHSxhhCwGnWUc_-6" style="edgeStyle=orthogonalEdgeStyle;rounded=0;orthogonalLoop=1;jettySize=auto;html=1;entryX=1;entryY=0.5;entryDx=0;entryDy=0;" edge="1" parent="WIyWlLk6GJQsqaUBKTNV-1" source="tbQpGqJHSxhhCwGnWUc_-3" target="tbQpGqJHSxhhCwGnWUc_-5">
          <mxGeometry relative="1" as="geometry" />
        </mxCell>
        <mxCell id="tbQpGqJHSxhhCwGnWUc_-8" style="edgeStyle=orthogonalEdgeStyle;rounded=0;orthogonalLoop=1;jettySize=auto;html=1;entryX=0;entryY=0.5;entryDx=0;entryDy=0;" edge="1" parent="WIyWlLk6GJQsqaUBKTNV-1" source="tbQpGqJHSxhhCwGnWUc_-3" target="tbQpGqJHSxhhCwGnWUc_-7">
          <mxGeometry relative="1" as="geometry" />
        </mxCell>
        <mxCell id="tbQpGqJHSxhhCwGnWUc_-3" value="jesli a-b=&amp;gt;18" style="rhombus;whiteSpace=wrap;html=1;" vertex="1" parent="WIyWlLk6GJQsqaUBKTNV-1">
          <mxGeometry x="335" y="330" width="110" height="120" as="geometry" />
        </mxCell>
        <mxCell id="tbQpGqJHSxhhCwGnWUc_-12" style="edgeStyle=orthogonalEdgeStyle;rounded=0;orthogonalLoop=1;jettySize=auto;html=1;entryX=0.5;entryY=0;entryDx=0;entryDy=0;" edge="1" parent="WIyWlLk6GJQsqaUBKTNV-1" source="tbQpGqJHSxhhCwGnWUc_-5" target="tbQpGqJHSxhhCwGnWUc_-11">
          <mxGeometry relative="1" as="geometry">
            <Array as="points">
              <mxPoint x="210" y="520" />
              <mxPoint x="390" y="520" />
            </Array>
          </mxGeometry>
        </mxCell>
        <mxCell id="tbQpGqJHSxhhCwGnWUc_-5" value="uzytkownik jest pelnoletni" style="rounded=0;whiteSpace=wrap;html=1;" vertex="1" parent="WIyWlLk6GJQsqaUBKTNV-1">
          <mxGeometry x="150" y="360" width="120" height="60" as="geometry" />
        </mxCell>
        <mxCell id="tbQpGqJHSxhhCwGnWUc_-13" style="edgeStyle=orthogonalEdgeStyle;rounded=0;orthogonalLoop=1;jettySize=auto;html=1;entryX=0.5;entryY=0;entryDx=0;entryDy=0;" edge="1" parent="WIyWlLk6GJQsqaUBKTNV-1" source="tbQpGqJHSxhhCwGnWUc_-7" target="tbQpGqJHSxhhCwGnWUc_-11">
          <mxGeometry relative="1" as="geometry">
            <Array as="points">
              <mxPoint x="560" y="520" />
              <mxPoint x="390" y="520" />
            </Array>
          </mxGeometry>
        </mxCell>
        <mxCell id="tbQpGqJHSxhhCwGnWUc_-7" value="uzytkownik&amp;nbsp; nie jest pelnoletni" style="rounded=0;whiteSpace=wrap;html=1;" vertex="1" parent="WIyWlLk6GJQsqaUBKTNV-1">
          <mxGeometry x="500" y="360" width="120" height="60" as="geometry" />
        </mxCell>
        <mxCell id="tbQpGqJHSxhhCwGnWUc_-9" value="tak" style="text;html=1;align=center;verticalAlign=middle;resizable=0;points=[];autosize=1;strokeColor=none;fillColor=none;" vertex="1" parent="WIyWlLk6GJQsqaUBKTNV-1">
          <mxGeometry x="280" y="355" width="40" height="30" as="geometry" />
        </mxCell>
        <mxCell id="tbQpGqJHSxhhCwGnWUc_-10" value="nie" style="text;html=1;align=center;verticalAlign=middle;resizable=0;points=[];autosize=1;strokeColor=none;fillColor=none;" vertex="1" parent="WIyWlLk6GJQsqaUBKTNV-1">
          <mxGeometry x="440" y="355" width="40" height="30" as="geometry" />
        </mxCell>
        <mxCell id="tbQpGqJHSxhhCwGnWUc_-11" value="STOP" style="ellipse;whiteSpace=wrap;html=1;" vertex="1" parent="WIyWlLk6GJQsqaUBKTNV-1">
          <mxGeometry x="330" y="585" width="120" height="80" as="geometry" />
        </mxCell>
      </root>
    </mxGraphModel>
  </diagram>
</mxfile>
